Coordinates
version=1
nRows=15
nColumns=42
inDegrees=yes

Units are S.I. units (second, meters, Newtons, ...)
If the header above contains a line with 'inDegrees', this indicates whether rotational values are in degrees (yes) or radians (no).

endheader
time	pelvis_tilt	pelvis_list	pelvis_rotation	pelvis_tx	pelvis_ty	pelvis_tz	hip_flexion_r	hip_adduction_r	hip_rotation_r	knee_angle_r	knee_adduction_r	knee_angle_r_beta	ankle_angle_r	subtalar_angle_r	mtp_angle_r	hip_flexion_l	hip_adduction_l	hip_rotation_l	knee_angle_l	knee_adduction_l	knee_angle_l_beta	ankle_angle_l	subtalar_angle_l	mtp_angle_l	lumbar_extension	lumbar_bending	lumbar_rotation	arm_flex_r	arm_add_r	arm_rot_r	elbow_flex_r	pro_sup_r	wrist_flex_r	wrist_dev_r	arm_flex_l	arm_add_l	arm_rot_l	elbow_flex_l	pro_sup_l	wrist_flex_l	wrist_dev_l
      0.38000000	      6.97242199	      0.07273128	      0.32631014	     -1.39508442	      0.92277707	      0.24324844	     20.96373028	      0.14416762	     -8.96146560	     17.77482701	      1.52273999	      0.31022926	      7.61893102	      4.24875620	     -8.05528437	    -29.14282347	     -2.98720091	    -14.19124410	     19.92743116	      1.81704953	      0.34779929	     14.49633275	     26.93303783	     -8.05528437	    -17.35363641	      3.54021261	     -6.58721499	     -9.32515694	    -10.67675154	      9.27135199	     33.24783889	     90.00000001	      0.00000000	      0.00000000	      5.41159524	    -18.12880605	     -3.64198356	     53.93405843	     90.00000001	      0.00000000	      0.00000000
      0.39000000	      7.33544527	     -0.49186037	      0.10024635	     -1.37796886	      0.92491346	      0.24503398	     20.40869757	      0.90267055	     -8.81506711	     19.66435602	      1.41413195	      0.34320776	      7.70855649	      3.58928541	     -8.04835486	    -28.80509614	     -3.71299388	    -14.34143060	     22.93948607	      1.29337464	      0.40036956	     12.01664575	     25.36336869	     -8.04835486	    -17.68841273	      4.14785394	     -6.27821254	     -8.92806548	    -10.88076424	      9.26069754	     33.11148975	     90.00000001	      0.00000000	      0.00000000	      4.69105608	    -17.72103391	     -3.78395151	     53.57680357	     90.00000001	      0.00000000	      0.00000000
      0.40000000	      7.80880754	     -0.89516196	     -0.23270687	     -1.36120829	      0.92768518	      0.24702653	     19.50253247	      1.47948712	     -8.28349074	     21.11613309	      1.53121855	      0.36854605	      7.97487404	      3.29072150	     -8.04325884	    -28.39746705	     -4.33698620	    -14.15864257	     26.18094236	      1.11025082	      0.45694365	      9.93034074	     23.96128166	     -8.04325884	    -18.20246295	      4.51669199	     -5.87086042	     -8.47906049	    -11.07096162	      9.25800219	     33.04588611	     90.00000001	      0.00000000	      0.00000000	      4.05819652	    -17.34346936	     -3.84937218	     53.11457409	     90.00000001	      0.00000000	      0.00000000
      0.41000000	      8.02066137	     -1.44110976	     -0.50209642	     -1.34459129	      0.93053663	      0.24892869	     18.66006016	      2.23064877	     -7.74464838	     22.13270482	      1.61197946	      0.38628857	      8.34092365	      2.89168164	     -8.03475598	    -27.36423778	     -5.05756930	    -14.32916063	     29.84512425	      0.46525443	      0.52089568	      7.64642211	     21.66839596	     -8.03475598	    -18.43376732	      5.05448723	     -5.47299425	     -8.03738030	    -11.27903276	      9.26987109	     32.96162998	     90.00000001	      0.00000000	      0.00000000	      3.34292934	    -16.93268364	     -3.81435956	     52.58222762	     90.00000001	      0.00000000	      0.00000000
      0.42000000	      8.08256455	     -1.88021259	     -0.89949163	     -1.32854880	      0.93348280	      0.25114073	     17.83489957	      2.91022313	     -6.90804704	     22.81649434	      1.80117562	      0.39822295	      8.66795996	      2.43293779	     -8.02181208	    -25.96048798	     -5.74223122	    -14.31904218	     33.73277903	      0.10706711	      0.58874806	      5.92605199	     19.34756353	     -8.02181208	    -18.57088201	      5.39913444	     -4.94007075	     -7.56033060	    -11.45431304	      9.28425837	     32.90961268	     90.00000001	      0.00000000	      0.00000000	      2.70662678	    -16.54352735	     -3.70885601	     51.92743122	     90.00000001	      0.00000000	      0.00000000
      0.43000000	      8.33654936	     -2.09988129	     -1.16480066	     -1.31284706	      0.93700494	      0.25286533	     16.58660361	      3.19528782	     -6.29050348	     23.10041525	      2.14664477	      0.40317830	      9.45249846	      2.47467266	     -8.01152423	    -24.55928147	     -6.17453581	    -14.43189105	     37.55624994	     -0.58496513	      0.65548022	      4.58156454	     17.50876150	     -8.01152423	    -18.95022390	      5.54666019	     -4.59201256	     -7.04266297	    -11.63539629	      9.25749628	     33.03012731	     90.00000001	      0.00000000	      0.00000000	      2.11501676	    -16.20061815	     -3.49620290	     51.20686782	     90.00000001	      0.00000000	      0.00000000
      0.44000000	      8.08821701	     -2.50086743	     -1.56212020	     -1.29756608	      0.93997064	      0.25509479	     15.81222133	      3.85139037	     -5.57149119	     23.14083618	      2.28475013	      0.40388378	      9.90003665	      2.22984183	     -7.99260718	    -22.43953514	     -6.88075668	    -14.66479280	     41.56407016	     -1.14743840	      0.72542987	      3.55571598	     15.09913295	     -7.99260718	    -18.79532913	      5.82333733	     -3.97522295	     -6.57324950	    -11.81956553	      9.24730331	     33.07607852	     90.00000001	      0.00000000	      0.00000000	      1.55685437	    -15.83355738	     -3.14922182	     50.40188220	     90.00000001	      0.00000000	      0.00000000
      0.45000000	      8.14444831	     -2.70092337	     -1.81914666	     -1.28240760	      0.94362993	      0.25686758	     14.46340956	      4.14597219	     -5.05938638	     22.72944255	      2.53608548	      0.39670361	     10.72342002	      2.53891118	     -7.98067953	    -20.60016758	     -7.31752212	    -14.94733493	     45.10897087	     -1.98905543	      0.78730006	      2.91933994	     13.19976678	     -7.98067953	    -18.98046453	      5.91160462	     -3.54970196	     -6.08508567	    -12.01326174	      9.24143579	     33.28913925	     90.00000001	      0.00000000	      0.00000000	      1.02627894	    -15.52197563	     -2.72111596	     49.56617580	     90.00000001	      0.00000000	      0.00000000
      0.46000000	      8.14878325	     -2.85086156	     -2.08998953	     -1.26748815	      0.94731551	      0.25871676	     13.08879854	      4.39679299	     -4.67735028	     22.11767132	      2.71394948	      0.38602619	     11.45187580	      2.99326471	     -7.96985698	    -18.65143529	     -7.71350524	    -15.29510500	     48.38353782	     -2.82989049	      0.84445204	      2.72240266	     11.30749434	     -7.96985698	    -19.09865497	      5.91496586	     -3.06993092	     -5.62861537	    -12.20641288	      9.25886067	     33.54895737	     90.00000001	      0.00000000	      0.00000000	      0.53637772	    -15.24585562	     -2.20444730	     48.68691800	     90.00000001	      0.00000000	      0.00000000
      0.47000000	      8.06203169	     -2.97248847	     -2.40003803	     -1.25282122	      0.95095808	      0.26068454	     11.75478324	      4.66436320	     -4.34533258	     21.35050538	      2.76214765	      0.37263662	     12.05819523	      3.47928598	     -7.95677548	    -16.56992747	     -8.10339992	    -15.70037505	     51.34389576	     -3.59811282	      0.89612003	      2.77253591	      9.39674927	     -7.95677548	    -19.11922886	      5.85877101	     -2.52952973	     -5.18898490	    -12.40236034	      9.30840328	     33.85637820	     90.00000001	      0.00000000	      0.00000000	      0.06504947	    -15.00358238	     -1.54228867	     47.76780386	     90.00000001	      0.00000000	      0.00000000
      0.48000000	      8.12517908	     -2.90857805	     -2.63085854	     -1.23825441	      0.95487363	      0.26234810	     10.16008745	      4.63964739	     -4.12125140	     20.36454425	      2.88253030	      0.35542835	     12.66141712	      4.08921937	     -7.94636384	    -14.63638549	     -8.21098555	    -16.17837404	     53.77705324	     -4.56008404	      0.93858664	      3.26479724	      7.90235266	     -7.94636384	    -19.27633237	      5.61674660	     -2.11418032	     -4.73921720	    -12.58373765	      9.36156885	     34.21582279	     90.00000001	      0.00000000	      0.00000000	     -0.39147981	    -14.78910687	     -0.90507258	     46.87521135	     90.00000001	      0.00000000	      0.00000000
      0.49000000	      8.14939125	     -2.78739662	     -2.87897682	     -1.22381771	      0.95874967	      0.26404432	      8.55705194	      4.56257061	     -3.90964187	     19.24153668	      2.94903987	      0.33582817	     13.18356245	      4.76371505	     -7.93596849	    -12.64682291	     -8.25590694	    -16.80597067	     55.81070453	     -5.54079591	      0.97408055	      3.94941475	      6.60106829	     -7.93596849	    -19.36711891	      5.29378210	     -1.66591983	     -4.32171396	    -12.78292243	      9.45561298	     34.60371313	     90.00000001	      0.00000000	      0.00000000	     -0.84707553	    -14.61134199	     -0.16540691	     45.98280894	     90.00000001	      0.00000000	      0.00000000
      0.50000000	      8.22140670	     -2.51315292	     -3.06473754	     -1.20959028	      0.96264063	      0.26556439	      6.90501868	      4.27242902	     -3.80726924	     18.07667950	      3.02412750	      0.31549758	     13.59083939	      5.42889279	     -7.92873779	    -10.68940177	     -8.06117286	    -17.40279843	     57.37782279	     -6.57000022	      1.00143193	      4.99565771	      5.60948535	     -7.92873779	    -19.50031032	      4.81513630	     -1.35657022	     -3.87263092	    -12.94774628	      9.53269598	     35.02445921	     90.00000001	      0.00000000	      0.00000000	     -1.32481301	    -14.47401847	      0.44284437	     45.16056810	     90.00000001	      0.00000000	      0.00000000
      0.51000000	      8.24589003	     -2.17263758	     -3.30687338	     -1.19546450	      0.96634751	      0.26712821	      5.32119321	      3.93980739	     -3.73894288	     16.90302907	      2.99280628	      0.29501351	     13.91592523	      6.06782386	     -7.92253890	     -8.70372130	     -7.82349383	    -18.04754671	     58.56337163	     -7.40087994	      1.02212366	      6.01130682	      4.87841086	     -7.92253890	    -19.56422341	      4.23818812	     -0.97356857	     -3.43606261	    -13.14115424	      9.63351744	     35.44578611	     90.00000001	      0.00000000	      0.00000000	     -1.83506998	    -14.30648262	      1.07248812	     44.40916969	     90.00000001	      0.00000000	      0.00000000
      0.52000000	      8.21859623	     -1.96271977	     -3.71609551	     -1.18125211	      0.96981163	      0.26899490	      3.63194645	      3.75745457	     -3.16231218	     15.36276021	      3.10034503	      0.26813075	     14.19387885	      6.70855282	     -7.90311165	     -6.74211514	     -7.69744089	    -19.39217154	     59.26277769	     -8.60787724	      1.03433059	      7.10779717	      4.78598862	     -7.90311165	    -19.53128541	      3.77151958	     -0.36168141	     -3.15031090	    -13.45497670	     10.06834129	     36.04468151	     90.00000001	      0.00000000	      0.00000000	     -2.32439202	    -14.34991812	      2.43558029	     43.61642188	     90.00000001	      0.00000000	      0.00000000
